#Comment line ignore any data following # character 
#Hierarchical Translation and Rotation (.htr) file 
[Header]	
#Header keywords are followed by a single value 
FileType HTR		#Single word string
DataType HTRS		#Translation followed by rotation and scale data
FileVersion 1		#integer
NumSegments 84		#integer
NumFrames 2		#integer
DataFrameRate 30		#integer, data frame rate in this file
EulerRotationOrder ZYX
CalibrationUnits mm
RotationUnits Degrees
GlobalAxisofGravity Y
BoneLengthAxis Y
ScaleFactor 1.00
[SegmentNames&Hierarchy]
#CHILD	PARENT
MASTER GLOBAL
root MASTER
chest root
L_mid_tent01 root
R_mid_tent01 root
spine01 root
Bip01_Neck chest
L_humerus chest
R_humerus chest
weapon_bone chest
Bip01_Head Bip01_Neck
eye_left_bone Bip01_Head
eye_right_bone Bip01_Head
L_forearm L_humerus
L_front_hand L_forearm
L_weapon_bone L_forearm
L_front_hand01_01 L_front_hand
L_front_hand02_01 L_front_hand
L_front_hand03_01 L_front_hand
L_front_hand01_02 L_front_hand01_01
L_front_hand02_02 L_front_hand02_01
L_front_hand03_02 L_front_hand03_01
R_forearm R_humerus
R_front_hand R_forearm
R_weapon_bone R_forearm
R_front_hand01_01 R_front_hand
R_front_hand02_01 R_front_hand
R_front_hand03_01 R_front_hand
R_front_hand01_02 R_front_hand01_01
R_front_hand02_02 R_front_hand02_01
R_front_hand03_02 R_front_hand03_01
null_rope01_connect L_mid_tent01
Rope1_Seg01 null_rope01_connect
Rope1_Seg02 Rope1_Seg01
Rope1_Seg03 Rope1_Seg02
Rope1_Seg04 Rope1_Seg03
Rope1_Seg05 Rope1_Seg04
Rope1_Seg06 Rope1_Seg05
Rope1_Seg07 Rope1_Seg06
Rope1_Seg09 Rope1_Seg07
L_mid_hand01 Rope1_Seg09
L_mid_hand02 Rope1_Seg09
L_mid_hand03 Rope1_Seg09
null_rope02_connect R_mid_tent01
Rope2_Seg01 null_rope02_connect
Rope2_Seg02 Rope2_Seg01
Rope2_Seg03 Rope2_Seg02
Rope2_Seg04 Rope2_Seg03
Rope2_Seg05 Rope2_Seg04
Rope2_Seg06 Rope2_Seg05
Rope2_Seg07 Rope2_Seg06
Rope2_Seg09 Rope2_Seg07
R_mid_hand01 Rope2_Seg09
R_mid_hand02 Rope2_Seg09
R_mid_hand03 Rope2_Seg09
spine02 spine01
spine03 spine02
pelvis spine03
null_rope03_connect pelvis
null_rope04_connect pelvis
Rope3_Seg01 null_rope03_connect
Rope3_Seg02 Rope3_Seg01
Rope3_Seg03 Rope3_Seg02
Rope3_Seg04 Rope3_Seg03
Rope3_Seg05 Rope3_Seg04
Rope3_Seg06 Rope3_Seg05
Rope3_Seg07 Rope3_Seg06
Rope3_Seg08 Rope3_Seg07
Rope3_Seg09 Rope3_Seg08
R_rear_hand01 Rope3_Seg09
R_rear_hand02 Rope3_Seg09
R_rear_hand03 Rope3_Seg09
Rope4_Seg01 null_rope04_connect
Rope4_Seg02 Rope4_Seg01
Rope4_Seg03 Rope4_Seg02
Rope4_Seg04 Rope4_Seg03
Rope4_Seg05 Rope4_Seg04
Rope4_Seg06 Rope4_Seg05
Rope4_Seg07 Rope4_Seg06
Rope4_Seg08 Rope4_Seg07
Rope4_Seg09 Rope4_Seg08
L_rear_hand01 Rope4_Seg09
L_rear_hand02 Rope4_Seg09
L_rear_hand03 Rope4_Seg09
[BasePosition]
#SegmentName Tx, Ty, Tz, Rx, Ry, Rz, BoneLength
MASTER 0.000000 0.000000 0.000000 -90.000000 0.000000 0.000000 10.000000 
root 0.000000 0.000000 0.000000 0.000000 0.000000 0.000000 10.000000 
chest 0.000000 0.000000 0.000000 0.000000 0.000000 0.000000 10.000000 
L_mid_tent01 0.000000 0.000000 0.000000 0.000000 0.000000 0.000000 10.000000 
R_mid_tent01 0.000000 0.000000 0.000000 0.000000 0.000000 0.000000 10.000000 
spine01 0.000000 0.000000 0.000000 0.000000 0.000000 0.000000 10.000000 
Bip01_Neck 0.000000 0.000000 0.000000 0.000000 0.000000 0.000000 10.000000 
L_humerus 0.000000 0.000000 0.000000 0.000000 0.000000 0.000000 10.000000 
R_humerus 0.000000 0.000000 0.000000 0.000000 0.000000 0.000000 10.000000 
weapon_bone 0.000000 0.000000 0.000000 0.000000 0.000000 0.000000 10.000000 
Bip01_Head 0.000000 0.000000 0.000000 0.000000 0.000000 0.000000 10.000000 
eye_left_bone 0.000000 0.000000 0.000000 0.000000 0.000000 0.000000 10.000000 
eye_right_bone 0.000000 0.000000 0.000000 0.000000 0.000000 0.000000 10.000000 
L_forearm 0.000000 0.000000 0.000000 0.000000 0.000000 0.000000 10.000000 
L_front_hand 0.000000 0.000000 0.000000 0.000000 0.000000 0.000000 10.000000 
L_weapon_bone 0.000000 0.000000 0.000000 0.000000 0.000000 0.000000 10.000000 
L_front_hand01_01 0.000000 0.000000 0.000000 0.000000 0.000000 0.000000 10.000000 
L_front_hand02_01 0.000000 0.000000 0.000000 0.000000 0.000000 0.000000 10.000000 
L_front_hand03_01 0.000000 0.000000 0.000000 0.000000 0.000000 0.000000 10.000000 
L_front_hand01_02 0.000000 0.000000 0.000000 0.000000 0.000000 0.000000 10.000000 
L_front_hand02_02 0.000000 0.000000 0.000000 0.000000 0.000000 0.000000 10.000000 
L_front_hand03_02 0.000000 0.000000 0.000000 0.000000 0.000000 0.000000 10.000000 
R_forearm 0.000000 0.000000 0.000000 0.000000 0.000000 0.000000 10.000000 
R_front_hand 0.000000 0.000000 0.000000 0.000000 0.000000 0.000000 10.000000 
R_weapon_bone 0.000000 0.000000 0.000000 0.000000 0.000000 0.000000 10.000000 
R_front_hand01_01 0.000000 0.000000 0.000000 0.000000 0.000000 0.000000 10.000000 
R_front_hand02_01 0.000000 0.000000 0.000000 0.000000 0.000000 0.000000 10.000000 
R_front_hand03_01 0.000000 0.000000 0.000000 0.000000 0.000000 0.000000 10.000000 
R_front_hand01_02 0.000000 0.000000 0.000000 0.000000 0.000000 0.000000 10.000000 
R_front_hand02_02 0.000000 0.000000 0.000000 0.000000 0.000000 0.000000 10.000000 
R_front_hand03_02 0.000000 0.000000 0.000000 0.000000 0.000000 0.000000 10.000000 
null_rope01_connect 0.000000 0.000000 0.000000 0.000000 0.000000 0.000000 10.000000 
Rope1_Seg01 0.000000 0.000000 0.000000 0.000000 0.000000 0.000000 10.000000 
Rope1_Seg02 0.000000 0.000000 0.000000 0.000000 0.000000 0.000000 10.000000 
Rope1_Seg03 0.000000 0.000000 0.000000 0.000000 0.000000 0.000000 10.000000 
Rope1_Seg04 0.000000 0.000000 0.000000 0.000000 0.000000 0.000000 10.000000 
Rope1_Seg05 0.000000 0.000000 0.000000 0.000000 0.000000 0.000000 10.000000 
Rope1_Seg06 0.000000 0.000000 0.000000 0.000000 0.000000 0.000000 10.000000 
Rope1_Seg07 0.000000 0.000000 0.000000 0.000000 0.000000 0.000000 10.000000 
Rope1_Seg09 0.000000 0.000000 0.000000 0.000000 0.000000 0.000000 10.000000 
L_mid_hand01 0.000000 0.000000 0.000000 0.000000 0.000000 0.000000 10.000000 
L_mid_hand02 0.000000 0.000000 0.000000 0.000000 0.000000 0.000000 10.000000 
L_mid_hand03 0.000000 0.000000 0.000000 0.000000 0.000000 0.000000 10.000000 
null_rope02_connect 0.000000 0.000000 0.000000 0.000000 0.000000 0.000000 10.000000 
Rope2_Seg01 0.000000 0.000000 0.000000 0.000000 0.000000 0.000000 10.000000 
Rope2_Seg02 0.000000 0.000000 0.000000 0.000000 0.000000 0.000000 10.000000 
Rope2_Seg03 0.000000 0.000000 0.000000 0.000000 0.000000 0.000000 10.000000 
Rope2_Seg04 0.000000 0.000000 0.000000 0.000000 0.000000 0.000000 10.000000 
Rope2_Seg05 0.000000 0.000000 0.000000 0.000000 0.000000 0.000000 10.000000 
Rope2_Seg06 0.000000 0.000000 0.000000 0.000000 0.000000 0.000000 10.000000 
Rope2_Seg07 0.000000 0.000000 0.000000 0.000000 0.000000 0.000000 10.000000 
Rope2_Seg09 0.000000 0.000000 0.000000 0.000000 0.000000 0.000000 10.000000 
R_mid_hand01 0.000000 0.000000 0.000000 0.000000 0.000000 0.000000 10.000000 
R_mid_hand02 0.000000 0.000000 0.000000 0.000000 0.000000 0.000000 10.000000 
R_mid_hand03 0.000000 0.000000 0.000000 0.000000 0.000000 0.000000 10.000000 
spine02 0.000000 0.000000 0.000000 0.000000 0.000000 0.000000 10.000000 
spine03 0.000000 0.000000 0.000000 0.000000 0.000000 0.000000 10.000000 
pelvis 0.000000 0.000000 0.000000 0.000000 0.000000 0.000000 10.000000 
null_rope03_connect 0.000000 0.000000 0.000000 0.000000 0.000000 0.000000 10.000000 
null_rope04_connect 0.000000 0.000000 0.000000 0.000000 0.000000 0.000000 10.000000 
Rope3_Seg01 0.000000 0.000000 0.000000 0.000000 0.000000 0.000000 10.000000 
Rope3_Seg02 0.000000 0.000000 0.000000 0.000000 0.000000 0.000000 10.000000 
Rope3_Seg03 0.000000 0.000000 0.000000 0.000000 0.000000 0.000000 10.000000 
Rope3_Seg04 0.000000 0.000000 0.000000 0.000000 0.000000 0.000000 10.000000 
Rope3_Seg05 0.000000 0.000000 0.000000 0.000000 0.000000 0.000000 10.000000 
Rope3_Seg06 0.000000 0.000000 0.000000 0.000000 0.000000 0.000000 10.000000 
Rope3_Seg07 0.000000 0.000000 0.000000 0.000000 0.000000 0.000000 10.000000 
Rope3_Seg08 0.000000 0.000000 0.000000 0.000000 0.000000 0.000000 10.000000 
Rope3_Seg09 0.000000 0.000000 0.000000 0.000000 0.000000 0.000000 10.000000 
R_rear_hand01 0.000000 0.000000 0.000000 0.000000 0.000000 0.000000 10.000000 
R_rear_hand02 0.000000 0.000000 0.000000 0.000000 0.000000 0.000000 10.000000 
R_rear_hand03 0.000000 0.000000 0.000000 0.000000 0.000000 0.000000 10.000000 
Rope4_Seg01 0.000000 0.000000 0.000000 0.000000 0.000000 0.000000 10.000000 
Rope4_Seg02 0.000000 0.000000 0.000000 0.000000 0.000000 0.000000 10.000000 
Rope4_Seg03 0.000000 0.000000 0.000000 0.000000 0.000000 0.000000 10.000000 
Rope4_Seg04 0.000000 0.000000 0.000000 0.000000 0.000000 0.000000 10.000000 
Rope4_Seg05 0.000000 0.000000 0.000000 0.000000 0.000000 0.000000 10.000000 
Rope4_Seg06 0.000000 0.000000 0.000000 0.000000 0.000000 0.000000 10.000000 
Rope4_Seg07 0.000000 0.000000 0.000000 0.000000 0.000000 0.000000 10.000000 
Rope4_Seg08 0.000000 0.000000 0.000000 0.000000 0.000000 0.000000 10.000000 
Rope4_Seg09 0.000000 0.000000 0.000000 0.000000 0.000000 0.000000 10.000000 
L_rear_hand01 0.000000 0.000000 0.000000 0.000000 0.000000 0.000000 10.000000 
L_rear_hand02 0.000000 0.000000 0.000000 0.000000 0.000000 0.000000 10.000000 
L_rear_hand03 0.000000 0.000000 0.000000 0.000000 0.000000 0.000000 10.000000 
#Beginning of Data. Separated by tabs
#Fr	Tx	Ty	Tz	Rx	Ry	Rz	SF
[MASTER]
8 0.000000 0.000000 0.000000 0.001660 0.001660 0.001660 0.000000
9 0.000000 0.000000 0.000000 0.001660 0.001660 0.001660 0.000000
[root]
8 -127.008438 -62.822140 1041.784180 -86.422295 -3.682834 -89.875992 1051.376221
9 -128.661682 -62.822140 973.614441 -86.371384 -3.506426 -89.950371 984.086121
[chest]
8 -75.499054 56.689758 -66.569046 -0.497236 4.646228 176.735611 115.521751
9 -75.727318 54.390865 -64.883217 -0.652014 4.829325 177.649063 113.590607
[L_mid_tent01]
8 26.791159 22.468763 -246.651627 7.255090 15.861178 100.505737 249.117706
9 26.843861 22.438568 -246.990280 6.618798 14.141183 99.627556 249.455963
[R_mid_tent01]
8 23.228794 24.509907 226.238495 175.165359 -31.454620 83.481575 228.744751
9 23.228794 24.509907 226.238495 176.421509 -33.003937 78.992752 228.744751
[spine01]
8 -0.361383 -0.195265 0.000000 -0.000001 -0.000007 22.052340 0.410763
9 -0.361383 -0.195265 0.000000 -0.000001 -0.000007 22.052340 0.410763
[Bip01_Neck]
8 165.484543 71.581718 0.000119 175.896118 1.177290 24.871183 180.302734
9 165.484543 71.581718 0.000119 175.896118 1.177290 24.871185 180.302734
[L_humerus]
8 -13.983130 -135.272980 -120.471481 -52.045403 14.815105 -153.392227 181.680161
9 -13.983130 -135.272980 -120.471481 -42.768105 16.775803 -146.971634 181.680161
[R_humerus]
8 -13.983309 -135.273102 125.287651 62.438763 -18.862190 -157.949936 184.909012
9 -13.983309 -135.273102 125.287651 52.254791 -22.357405 -150.947281 184.909012
[weapon_bone]
8 235.964890 -300.705902 0.000000 0.000000 -89.951546 -128.212341 382.234833
9 235.964890 -300.705902 0.000000 0.000000 -89.951546 -128.212341 382.234833
[Bip01_Head]
8 173.612213 93.381958 7.216263 2.593122 -5.886780 -25.035196 197.264954
9 173.710785 99.042969 6.822299 2.941079 -5.408813 -25.382469 200.078690
[eye_left_bone]
8 -24.626970 125.451866 -64.772606 0.000000 -90.000000 -99.840431 143.318359
9 -24.626970 125.451866 -64.772606 0.000000 -90.000000 -99.840431 143.318359
[eye_right_bone]
8 -24.626970 125.451866 64.327362 0.000000 -89.960434 80.159386 143.117676
9 -24.626970 125.451866 64.327362 0.000000 -89.960434 80.159386 143.117676
[L_forearm]
8 322.776093 0.000000 -0.000119 0.000658 -0.002253 -122.538597 322.776093
9 322.776093 0.000000 -0.000119 0.000756 -0.002222 -127.589127 322.776093
[L_front_hand]
8 241.149185 -0.042021 -3.300071 -171.237076 1.023156 -53.831753 241.171753
9 241.149185 -0.042021 -3.300071 -170.170456 0.695705 -47.448318 241.171753
[L_weapon_bone]
8 156.183838 0.000000 0.000000 0.000014 0.000007 0.000001 156.183838
9 156.183838 0.000000 0.000000 0.000014 0.000007 0.000001 156.183838
[L_front_hand01_01]
8 86.095154 20.947098 -0.655860 0.397911 -0.447512 -3.892954 88.609184
9 86.095154 20.947098 -0.655860 0.398402 -0.444524 -4.041400 88.609184
[L_front_hand02_01]
8 86.935165 -11.437475 24.513514 116.941650 2.981456 1.164597 91.046425
9 86.935165 -11.437475 24.513514 116.945160 3.114888 1.230873 91.046425
[L_front_hand03_01]
8 86.637497 -14.123976 -20.424902 -118.393692 -4.021531 -0.498227 90.126129
9 86.637497 -14.123976 -20.424902 -118.398842 -4.152047 -0.428945 90.126129
[L_front_hand01_02]
8 71.020905 -0.000179 0.000030 0.001534 0.001777 -8.378848 71.020905
9 71.020905 -0.000179 0.000030 0.001534 0.001777 -8.378850 71.020905
[L_front_hand02_02]
8 71.020927 -0.000119 0.000060 0.001534 0.001777 -8.378848 71.020927
9 71.020927 -0.000119 0.000060 0.001534 0.001777 -8.378850 71.020927
[L_front_hand03_02]
8 71.020905 -0.000060 0.000060 0.001534 0.001777 -8.378848 71.020905
9 71.020905 -0.000060 0.000060 0.001534 0.001777 -8.378850 71.020905
[R_forearm]
8 322.776428 -0.000060 0.000030 0.186449 0.101582 -119.864525 322.776428
9 322.776428 -0.000060 0.000030 0.174285 0.120167 -125.901428 322.776428
[R_front_hand]
8 238.847015 -0.006795 2.210259 -9.575340 -1.700004 -63.317650 238.857239
9 238.847015 -0.006795 2.210259 -10.860794 -1.242880 -56.103989 238.857239
[R_weapon_bone]
8 155.664093 0.002503 -0.000030 0.003487 0.001180 -90.988930 155.664078
9 155.664093 0.002503 -0.000030 0.003487 0.001180 -90.988930 155.664078
[R_front_hand01_01]
8 87.624611 14.231146 22.918642 -116.944412 2.990710 -1.063159 91.683487
9 87.624611 14.231146 22.918642 -116.948647 3.086771 -1.112699 91.683487
[R_front_hand02_01]
8 89.356956 14.367283 -19.491137 118.402710 -3.757936 0.877432 92.579636
9 89.356956 14.367283 -19.491137 118.404900 -3.859621 0.822775 92.579636
[R_front_hand03_01]
8 87.286232 -22.307278 -0.143439 -0.386921 -0.236681 3.662921 90.091743
9 87.286232 -22.307278 -0.143439 -0.387092 -0.234666 3.771777 90.091743
[R_front_hand01_02]
8 71.020905 0.000060 0.000119 0.001777 0.001534 8.377220 71.020905
9 71.020905 0.000060 0.000119 0.001777 0.001534 8.377220 71.020905
[R_front_hand02_02]
8 71.020844 -0.000030 -0.000119 0.001777 0.001534 8.377220 71.020836
9 71.020844 -0.000030 -0.000119 0.001777 0.001534 8.377220 71.020836
[R_front_hand03_02]
8 71.020905 0.000000 0.000030 0.001777 0.001534 8.377220 71.020905
9 71.020905 0.000000 0.000030 0.001777 0.001534 8.377220 71.020905
[null_rope01_connect]
8 328.732483 0.000000 -0.000238 -158.755692 -76.074623 152.821259 328.732483
9 328.732483 0.000000 -0.000238 -156.344833 -77.890388 150.921143 328.732483
[Rope1_Seg01]
8 -0.000034 0.000029 0.000117 117.660362 -15.131156 131.426453 0.000125
9 -0.000033 0.000028 0.000112 117.887863 -16.253561 132.950211 0.000120
[Rope1_Seg02]
8 139.999863 -0.000179 0.000000 -4.150233 -7.989789 -8.980604 139.999863
9 139.999863 -0.000179 0.000000 -3.642708 -7.536135 -7.490169 139.999863
[Rope1_Seg03]
8 139.999924 0.000060 -0.000060 -4.712861 -11.258551 -14.908922 139.999924
9 139.999924 0.000060 -0.000060 -4.551900 -10.661679 -12.375594 139.999924
[Rope1_Seg04]
8 139.999924 -0.000060 -0.000119 -3.113448 -12.697329 -18.902632 139.999924
9 139.999924 -0.000060 -0.000119 -3.747376 -12.202164 -17.536392 139.999924
[Rope1_Seg05]
8 139.999832 0.000119 -0.000060 -0.572840 -6.019475 -18.301516 139.999832
9 139.999832 0.000119 -0.000060 -1.218249 -11.122738 -20.176117 139.999832
[Rope1_Seg06]
8 139.999954 0.000119 -0.000060 1.183350 -1.917343 -15.069483 139.999954
9 139.999954 0.000119 -0.000060 0.140882 -5.532853 -11.287932 139.999954
[Rope1_Seg07]
8 139.999985 0.000060 0.000000 1.811857 -2.068743 -8.999421 139.999985
9 139.999985 0.000060 0.000000 0.310314 -2.795745 -5.742084 139.999985
[Rope1_Seg09]
8 121.602913 0.000119 -0.000089 -89.793175 -1.359789 0.847147 121.602913
9 121.602913 0.000119 -0.000089 -89.793175 -1.359789 0.847147 121.602913
[L_mid_hand01]
8 103.859421 1.038730 8.195221 121.200699 -61.412300 -28.538128 104.187431
9 103.859421 1.038730 8.195221 130.544373 -67.584534 -38.866943 104.187431
[L_mid_hand02]
8 105.572853 -4.139662 -10.864139 -162.188599 41.511356 -63.539837 106.211075
9 105.572853 -4.139662 -10.864139 -168.923172 43.409309 -73.498886 106.211075
[L_mid_hand03]
8 104.641464 17.579376 -3.913581 -8.366361 16.856203 67.007210 106.179977
9 104.641464 17.579376 -3.913581 -6.012627 17.808174 74.893669 106.179977
[null_rope02_connect]
8 328.732849 0.000179 -0.000119 -161.825653 54.716904 6.372519 328.732849
9 328.732849 0.000179 -0.000119 -160.378723 53.331257 3.731040 328.732849
[Rope2_Seg01]
8 0.000055 0.000054 0.000000 -27.970251 18.395573 92.552620 0.000078
9 0.000050 0.000046 0.000000 -30.846832 11.389416 94.193169 0.000067
[Rope2_Seg02]
8 139.999741 -0.000060 -0.000119 -0.028082 5.310750 -2.242589 139.999756
9 139.999741 -0.000060 -0.000119 0.286991 5.811308 -1.989459 139.999756
[Rope2_Seg03]
8 140.000107 0.000030 0.000000 -0.099308 6.875047 -2.917921 140.000107
9 140.000107 0.000030 0.000000 0.180954 8.126410 -2.851592 140.000107
[Rope2_Seg04]
8 139.999802 0.000000 -0.000060 -1.041261 9.653001 -6.691357 139.999802
9 139.999802 0.000000 -0.000060 -1.155606 12.516931 -7.224791 139.999802
[Rope2_Seg05]
8 139.999985 -0.000060 0.000119 -0.309343 10.919109 -3.357090 139.999985
9 139.999985 -0.000060 0.000119 -0.486412 14.852776 -3.857959 139.999985
[Rope2_Seg06]
8 139.999893 -0.000030 -0.000119 -0.455169 5.793451 7.535993 139.999893
9 139.999893 -0.000030 -0.000119 -1.099953 8.348954 8.876655 139.999893
[Rope2_Seg07]
8 139.999893 0.000060 -0.000060 -0.596453 4.080423 4.618788 139.999893
9 139.999893 0.000060 -0.000060 -1.338133 6.225523 5.265555 139.999893
[Rope2_Seg09]
8 121.338966 0.000089 -0.000060 33.793236 -1.359788 -0.847141 121.338966
9 121.338966 0.000089 -0.000060 33.793236 -1.359788 -0.847141 121.338966
[R_mid_hand01]
8 104.680779 11.144459 -10.335981 -17.019753 44.999577 69.321541 105.778534
9 104.680779 11.144459 -10.335981 -19.189528 44.275585 66.232140 105.778534
[R_mid_hand02]
8 104.070427 2.443552 8.231699 50.373463 -67.110069 37.870689 104.424065
9 104.070427 2.443552 8.231699 53.612793 -65.286255 34.336842 104.424065
[R_mid_hand03]
8 106.028137 -11.221827 -5.996406 -176.864227 15.507460 -75.714943 106.788818
9 106.028137 -11.221827 -5.996406 -176.228683 15.366962 -73.317001 106.788818
[spine02]
8 129.756927 0.001550 0.000119 -0.076393 -4.317605 -6.821160 129.756927
9 129.756927 0.001550 0.000119 -0.092248 -4.321230 -6.613996 129.756927
[spine03]
8 78.690567 0.073892 -4.149395 0.136642 7.187788 -8.516002 78.799919
9 78.683434 0.075131 -4.218975 0.162156 7.004247 -8.240599 78.796501
[pelvis]
8 169.435242 0.051022 0.000000 0.022783 2.483861 -3.362192 169.435257
9 169.435242 0.051022 0.000000 0.025751 2.352635 -3.164120 169.435257
[null_rope03_connect]
8 -1.257226 -2.466202 137.391083 -50.802952 -83.451622 140.932556 137.418976
9 -1.257226 -2.466202 137.391083 -49.562778 -83.639030 138.848846 137.418976
[null_rope04_connect]
8 -1.259640 -2.480268 -137.844437 -50.802952 -83.451622 140.932556 137.872513
9 -1.259640 -2.480268 -137.844437 -49.562778 -83.639030 138.848846 137.872513
[Rope3_Seg01]
8 0.000000 0.000000 0.000000 -98.466705 56.888195 -30.900152 0.000000
9 0.000000 0.000000 0.000000 -87.163620 43.643997 -16.267616 0.000000
[Rope3_Seg02]
8 139.999924 -0.000119 0.000060 -9.016219 16.837715 -21.890551 139.999924
9 139.999924 -0.000119 0.000060 -13.554789 18.698050 -15.237606 139.999924
[Rope3_Seg03]
8 139.999924 -0.000119 0.000119 -10.858847 14.385443 -20.173208 139.999924
9 139.999924 -0.000119 0.000119 -11.249431 14.459905 -14.028028 139.999924
[Rope3_Seg04]
8 139.999924 0.000119 0.000000 -4.118722 7.225176 -5.372624 139.999924
9 139.999924 0.000119 0.000000 -2.814341 6.692538 -0.876536 139.999924
[Rope3_Seg05]
8 139.999924 -0.000238 0.000060 2.072866 -0.437764 10.261640 139.999924
9 139.999924 -0.000238 0.000060 2.628576 -0.432882 15.154051 139.999924
[Rope3_Seg06]
8 139.999893 -0.000119 -0.000060 1.496694 -2.899063 19.703627 139.999893
9 139.999893 -0.000119 -0.000060 0.575011 -1.275466 21.508179 139.999893
[Rope3_Seg07]
8 139.999771 0.000060 -0.000119 -0.131521 0.010137 11.668902 139.999771
9 139.999771 0.000060 -0.000119 -0.759725 0.658276 11.983225 139.999771
[Rope3_Seg08]
8 139.999985 -0.000060 0.000000 -0.542678 0.013934 7.812021 139.999985
9 139.999985 -0.000060 0.000000 -0.925633 0.299281 7.383587 139.999985
[Rope3_Seg09]
8 90.185997 -0.000179 -0.000060 89.793228 -1.359877 -0.847183 90.185997
9 90.185997 -0.000179 -0.000060 89.793228 -1.359877 -0.847183 90.185997
[R_rear_hand01]
8 103.366196 -6.073594 -10.757982 -161.551193 16.666374 -30.088671 104.101845
9 103.366196 -6.073594 -10.757982 -161.551193 16.666374 -30.088671 104.101845
[R_rear_hand02]
8 100.509819 12.039542 -7.992327 -34.280552 19.289745 28.875523 101.543350
9 100.509819 12.039542 -7.992327 -34.280552 19.289745 28.875523 101.543350
[R_rear_hand03]
8 101.539970 5.215704 5.435467 83.366440 -30.933914 7.284830 101.819031
9 101.539970 5.215704 5.435467 83.366440 -30.933914 7.284830 101.819031
[Rope4_Seg01]
8 0.000008 -0.000097 -0.000027 48.070381 38.525833 -105.568810 0.000101
9 0.000006 -0.000094 -0.000031 44.218994 25.886076 -111.631584 0.000099
[Rope4_Seg02]
8 139.999985 0.000060 0.000119 -1.468384 -18.486187 7.818018 139.999985
9 139.999985 0.000060 0.000119 0.633750 -12.314407 1.888355 139.999985
[Rope4_Seg03]
8 139.999924 0.000000 -0.000238 1.660168 -14.968317 4.893676 139.999924
9 139.999924 0.000000 -0.000238 1.618788 -9.942971 2.015717 139.999924
[Rope4_Seg04]
8 139.999985 0.000000 0.000119 0.597444 -0.926477 1.559786 139.999985
9 139.999985 0.000000 0.000119 -0.926326 4.057541 -1.327805 139.999985
[Rope4_Seg05]
8 139.999802 -0.000060 -0.000119 -1.300539 13.088219 -0.849492 139.999802
9 139.999802 -0.000060 -0.000119 -3.082549 21.808939 -6.237570 139.999802
[Rope4_Seg06]
8 139.999924 0.000000 0.000060 0.241217 15.055628 -0.225863 139.999924
9 139.999924 0.000000 0.000060 1.605458 21.727858 -5.484524 139.999924
[Rope4_Seg07]
8 139.999802 0.000000 0.000000 1.662206 13.281965 0.020928 139.999802
9 139.999802 0.000000 0.000000 4.497073 15.201493 -4.527760 139.999802
[Rope4_Seg08]
8 139.999924 0.000000 0.000119 -0.396611 5.413771 -0.150770 139.999924
9 139.999924 0.000000 0.000119 0.794814 4.784410 -1.871014 139.999924
[Rope4_Seg09]
8 90.185791 0.000060 0.000060 -135.617828 2.228885 0.850567 90.185791
9 90.185791 0.000060 0.000060 -135.617828 2.228885 0.850567 90.185791
[L_rear_hand01]
8 101.696655 -8.392275 -7.654577 -35.089912 -17.605608 153.690842 102.329041
9 101.696655 -8.392275 -7.654577 -35.090160 -17.605457 153.690811 102.329041
[L_rear_hand02]
8 102.726799 -1.568258 5.773216 83.559639 27.993685 173.104294 102.900848
9 102.726799 -1.568258 5.773216 83.559593 27.993528 173.104141 102.900848
[L_rear_hand03]
8 104.552910 9.721220 -10.420293 -160.739441 -15.710287 -152.827927 105.519653
9 104.552910 9.721220 -10.420293 -160.739426 -15.710248 -152.828140 105.519653
